<svg xmlns="http://www.w3.org/2000/svg" width="18" height="16" fill="#FF6F60" viewBox="0 0 18 16"><path stroke="#FF6F60" stroke-linecap="round" stroke-linejoin="round" d="M10.2369 2.19522L10.237 2.19513C10.6162 1.81576 11.0664 1.51481 11.5619 1.30948C12.0575 1.10416 12.5886 0.998474 13.125 0.998474C13.6614 0.998474 14.1925 1.10416 14.6881 1.30948C15.1836 1.51481 15.6338 1.81576 16.013 2.19513L16.0132 2.1953C16.3926 2.5745 16.6935 3.02472 16.8988 3.52026C17.1042 4.0158 17.2099 4.54694 17.2099 5.08333C17.2099 5.61972 17.1042 6.15086 16.8988 6.6464C16.6935 7.14193 16.3926 7.59216 16.0132 7.97136L16.0131 7.97144L15.1298 8.85478L9 14.9846L2.87022 8.85478L1.98688 7.97144C1.22091 7.20547 0.790588 6.16658 0.790588 5.08333C0.790588 4.00008 1.22091 2.96119 1.98688 2.19522C2.75286 1.42924 3.79174 0.99892 4.875 0.99892C5.95825 0.99892 6.99714 1.42924 7.76311 2.19522L8.64644 3.07855C8.84171 3.27381 9.15829 3.27381 9.35355 3.07855L10.2369 2.19522Z"/></svg>